<?xml version="1.0" encoding="UTF-8" standalone="no"?>
<!DOCTYPE svg PUBLIC "-//W3C//DTD SVG 1.1//EN" "http://www.w3.org/Graphics/SVG/1.1/DTD/svg11.dtd">
<svg version="1.1" xmlns="http://www.w3.org/2000/svg" xmlns:xlink="http://www.w3.org/1999/xlink" preserveAspectRatio="xMidYMid meet" viewBox="0 0 500 500" width="500" height="500"><defs><path d="M474.68 0C488.66 0 500 11.33 500 25.32C500 120.25 500 379.74 500 474.68C500 488.66 488.66 500 474.68 500C379.74 500 120.25 500 25.31 500C11.33 500 0 488.66 0 474.68C0 379.74 0 120.25 0 25.32C0 11.33 11.33 0 25.31 0C120.25 0 379.74 0 474.68 0Z" id="b2MA1PEYa6"></path><clipPath id="clipc1wEx4GX3U"><use xlink:href="#b2MA1PEYa6" opacity="1"></use></clipPath><path d="M28.59 474.55L466.97 474.55L466.97 317.98L373.03 209.9L204.34 400L100 309.9L28.59 385.66L28.59 474.55Z" id="a27bDVlJ18"></path><path d="M260.91 149.29C260.91 204.48 216.1 249.29 160.91 249.29C105.72 249.29 60.91 204.48 60.91 149.29C60.91 94.1 105.72 49.29 160.91 49.29C216.1 49.29 260.91 94.1 260.91 149.29Z" id="b5IDF5e4ta"></path><path d="M303.84 250L400 346.15L346.15 400L250 303.85L153.84 400L100 346.15L196.15 250L100 153.85L153.84 100L250 196.15L346.15 100L400 153.85L303.84 250Z" id="a4ESs0d9ug"></path></defs><g><g><g><use xlink:href="#b2MA1PEYa6" opacity="1" fill="#ffffff" fill-opacity="0"></use><g clip-path="url(#clipc1wEx4GX3U)"><use xlink:href="#b2MA1PEYa6" opacity="1" fill-opacity="0" stroke="#c4c4c4" stroke-width="100" stroke-opacity="1"></use></g></g><g><use xlink:href="#a27bDVlJ18" opacity="1" fill="#c4c4c4" fill-opacity="1"></use></g><g><use xlink:href="#b5IDF5e4ta" opacity="1" fill="#c4c4c4" fill-opacity="1"></use></g><g><use xlink:href="#a4ESs0d9ug" opacity="1" fill="#ff0000" fill-opacity="1"></use></g></g></g></svg>